<svg id="visual" viewBox="0 0 900 450" width="900" height="450" xmlns="http://www.w3.org/2000/svg" xmlns:xlink="http://www.w3.org/1999/xlink" version="1.1"><rect x="0" y="0" width="900" height="450" fill="#ffffff"></rect><path d="M0 352L9.3 351.5C18.7 351 37.3 350 56.2 349.3C75 348.7 94 348.3 112.8 345.8C131.7 343.3 150.3 338.7 169 338.2C187.7 337.7 206.3 341.3 225 343.5C243.7 345.7 262.3 346.3 281.2 345.7C300 345 319 343 337.8 342.3C356.7 341.7 375.3 342.3 394 342.7C412.7 343 431.3 343 450 344.8C468.7 346.7 487.3 350.3 506.2 350.7C525 351 544 348 562.8 346.7C581.7 345.3 600.3 345.7 619 344.5C637.7 343.3 656.3 340.7 675 339.7C693.7 338.7 712.3 339.3 731.2 339.2C750 339 769 338 787.8 338.2C806.7 338.3 825.3 339.7 844 341.3C862.7 343 881.3 345 890.7 346L900 347L900 451L890.7 451C881.3 451 862.7 451 844 451C825.3 451 806.7 451 787.8 451C769 451 750 451 731.2 451C712.3 451 693.7 451 675 451C656.3 451 637.7 451 619 451C600.3 451 581.7 451 562.8 451C544 451 525 451 506.2 451C487.3 451 468.7 451 450 451C431.3 451 412.7 451 394 451C375.3 451 356.7 451 337.8 451C319 451 300 451 281.2 451C262.3 451 243.7 451 225 451C206.3 451 187.7 451 169 451C150.3 451 131.7 451 112.8 451C94 451 75 451 56.2 451C37.3 451 18.7 451 9.3 451L0 451Z" fill="#ffffff"></path><path d="M0 362L9.3 364.5C18.7 367 37.3 372 56.2 374.5C75 377 94 377 112.8 374.3C131.7 371.7 150.3 366.3 169 363.7C187.7 361 206.3 361 225 360.5C243.7 360 262.3 359 281.2 361.5C300 364 319 370 337.8 371.3C356.7 372.7 375.3 369.3 394 368.8C412.7 368.3 431.3 370.7 450 370.3C468.7 370 487.3 367 506.2 364.8C525 362.7 544 361.3 562.8 361C581.7 360.7 600.3 361.3 619 363.2C637.7 365 656.3 368 675 367.8C693.7 367.7 712.3 364.3 731.2 364.5C750 364.7 769 368.3 787.8 370C806.7 371.7 825.3 371.3 844 371.8C862.7 372.3 881.3 373.7 890.7 374.3L900 375L900 451L890.7 451C881.3 451 862.7 451 844 451C825.3 451 806.7 451 787.8 451C769 451 750 451 731.2 451C712.3 451 693.7 451 675 451C656.3 451 637.7 451 619 451C600.3 451 581.7 451 562.8 451C544 451 525 451 506.2 451C487.3 451 468.7 451 450 451C431.3 451 412.7 451 394 451C375.3 451 356.7 451 337.8 451C319 451 300 451 281.2 451C262.3 451 243.7 451 225 451C206.3 451 187.7 451 169 451C150.3 451 131.7 451 112.8 451C94 451 75 451 56.2 451C37.3 451 18.7 451 9.3 451L0 451Z" fill="#f3fcfb"></path><path d="M0 394L9.3 392.5C18.7 391 37.3 388 56.2 387C75 386 94 387 112.8 386C131.7 385 150.3 382 169 380.5C187.7 379 206.3 379 225 381.7C243.7 384.3 262.3 389.7 281.2 390.8C300 392 319 389 337.8 386.7C356.7 384.3 375.3 382.7 394 381.2C412.7 379.7 431.3 378.3 450 379.2C468.7 380 487.3 383 506.2 383.5C525 384 544 382 562.8 380.5C581.7 379 600.3 378 619 378.3C637.7 378.7 656.3 380.3 675 382C693.7 383.7 712.3 385.3 731.2 386.5C750 387.7 769 388.3 787.8 389.7C806.7 391 825.3 393 844 392.5C862.7 392 881.3 389 890.7 387.5L900 386L900 451L890.7 451C881.3 451 862.7 451 844 451C825.3 451 806.7 451 787.8 451C769 451 750 451 731.2 451C712.3 451 693.7 451 675 451C656.3 451 637.7 451 619 451C600.3 451 581.7 451 562.8 451C544 451 525 451 506.2 451C487.3 451 468.7 451 450 451C431.3 451 412.7 451 394 451C375.3 451 356.7 451 337.8 451C319 451 300 451 281.2 451C262.3 451 243.7 451 225 451C206.3 451 187.7 451 169 451C150.3 451 131.7 451 112.8 451C94 451 75 451 56.2 451C37.3 451 18.7 451 9.3 451L0 451Z" fill="#e6f9f8"></path><path d="M0 406L9.3 407.7C18.7 409.3 37.3 412.7 56.2 412.2C75 411.7 94 407.3 112.8 406.3C131.7 405.3 150.3 407.7 169 407.2C187.7 406.7 206.3 403.3 225 402C243.7 400.7 262.3 401.3 281.2 402.5C300 403.7 319 405.3 337.8 407.5C356.7 409.7 375.3 412.3 394 411.5C412.7 410.7 431.3 406.3 450 403.8C468.7 401.3 487.3 400.7 506.2 400C525 399.3 544 398.7 562.8 399.3C581.7 400 600.3 402 619 404.2C637.7 406.3 656.3 408.7 675 409.5C693.7 410.3 712.3 409.7 731.2 408.3C750 407 769 405 787.8 403C806.7 401 825.3 399 844 398.3C862.7 397.7 881.3 398.3 890.7 398.7L900 399L900 451L890.7 451C881.3 451 862.7 451 844 451C825.3 451 806.7 451 787.8 451C769 451 750 451 731.2 451C712.3 451 693.7 451 675 451C656.3 451 637.7 451 619 451C600.3 451 581.7 451 562.8 451C544 451 525 451 506.2 451C487.3 451 468.7 451 450 451C431.3 451 412.7 451 394 451C375.3 451 356.7 451 337.8 451C319 451 300 451 281.2 451C262.3 451 243.7 451 225 451C206.3 451 187.7 451 169 451C150.3 451 131.7 451 112.8 451C94 451 75 451 56.2 451C37.3 451 18.7 451 9.3 451L0 451Z" fill="#daf6f4"></path><path d="M0 430L9.3 428C18.7 426 37.3 422 56.2 421C75 420 94 422 112.8 423.8C131.7 425.7 150.3 427.3 169 428.5C187.7 429.7 206.3 430.3 225 430.8C243.7 431.3 262.3 431.7 281.2 431.7C300 431.7 319 431.3 337.8 430C356.7 428.7 375.3 426.3 394 424.8C412.7 423.3 431.3 422.7 450 423.7C468.7 424.7 487.3 427.3 506.2 429.3C525 431.3 544 432.7 562.8 432.5C581.7 432.3 600.3 430.7 619 429.3C637.7 428 656.3 427 675 425.7C693.7 424.3 712.3 422.7 731.2 422.7C750 422.7 769 424.3 787.8 426.2C806.7 428 825.3 430 844 430.7C862.7 431.3 881.3 430.7 890.7 430.3L900 430L900 451L890.7 451C881.3 451 862.7 451 844 451C825.3 451 806.7 451 787.8 451C769 451 750 451 731.2 451C712.3 451 693.7 451 675 451C656.3 451 637.7 451 619 451C600.3 451 581.7 451 562.8 451C544 451 525 451 506.2 451C487.3 451 468.7 451 450 451C431.3 451 412.7 451 394 451C375.3 451 356.7 451 337.8 451C319 451 300 451 281.2 451C262.3 451 243.7 451 225 451C206.3 451 187.7 451 169 451C150.3 451 131.7 451 112.8 451C94 451 75 451 56.2 451C37.3 451 18.7 451 9.3 451L0 451Z" fill="#cdf2f1"></path></svg>